<?xml version="1.0" encoding="UTF-8"?>
<svg id="Camada_1" xmlns="http://www.w3.org/2000/svg" width="87.9cm" height="14.9cm" xmlns:xlink="http://www.w3.org/1999/xlink" version="1.1" viewBox="0 0 2491.6 423.5">
  <!-- Generator: Adobe Illustrator 30.5.1, SVG Export Plug-In . SVG Version: 2.1.4 Build 3)  -->
  <defs>
    <linearGradient id="Gradiente_sem_nome_16" data-name="Gradiente sem nome 16" x1="18.4" y1="38.7" x2="25.6" y2="38.7" gradientUnits="userSpaceOnUse">
      <stop offset="0" stop-color="#00357a"/>
      <stop offset="1" stop-color="#003b85"/>
    </linearGradient>
    <linearGradient id="Gradiente_sem_nome_161" data-name="Gradiente sem nome 16" x1="43.5" y1="7.3" x2="43.5" y2="36.6" xlink:href="#Gradiente_sem_nome_16"/>
    <linearGradient id="Gradiente_sem_nome_162" data-name="Gradiente sem nome 16" x1="84.8" y1="49.1" x2="84.8" y2="38.2" xlink:href="#Gradiente_sem_nome_16"/>
    <linearGradient id="Gradiente_sem_nome_163" data-name="Gradiente sem nome 16" x1="22.2" y1="49" x2="22.2" y2="39.5" xlink:href="#Gradiente_sem_nome_16"/>
    <linearGradient id="Gradiente_sem_nome_164" data-name="Gradiente sem nome 16" x1="8.1" y1="49.2" x2="8.1" y2="38" xlink:href="#Gradiente_sem_nome_16"/>
    <linearGradient id="Gradiente_sem_nome_165" data-name="Gradiente sem nome 16" x1="36.3" y1="49.1" x2="36.3" y2="39.6" xlink:href="#Gradiente_sem_nome_16"/>
    <linearGradient id="Gradiente_sem_nome_166" data-name="Gradiente sem nome 16" x1="70.9" y1="49.1" x2="70.9" y2="39.7" xlink:href="#Gradiente_sem_nome_16"/>
    <linearGradient id="Gradiente_sem_nome_167" data-name="Gradiente sem nome 16" x1="53.4" y1="49.1" x2="53.4" y2="39.7" xlink:href="#Gradiente_sem_nome_16"/>
  </defs>
  <path d="M2491.6,423.5s0,0,0,0c0,0,0,0,0,0,0,0,0,0,0,0,0,0,0,0,0,0" style="fill: #9a999e; fill-rule: evenodd;"/>
  <path d="M2491.6,423.5s0,0,0,0c0,0,0,0,0,0,0,0,0,0,0,0,0,0,0,0,0,0" style="fill: #9a999e; fill-rule: evenodd;"/>
  <g>
    <path d="M242.1,3.1c-.1-.2-.3-.3-.3-.4,0,0-.2-.1-.3-.2.3,0,.5-.1.6-.2.1-.1.2-.3.2-.5s0-.3-.1-.4c0-.1-.2-.2-.3-.2-.1,0-.4,0-.7,0h-1.3v2.5h.6v-1h.1c.1,0,.2,0,.3,0,0,0,.1,0,.2.1,0,0,.2.2.3.4l.4.5h.7l-.4-.5ZM240.8,2.2h-.4v-.6h.5c.2,0,.4,0,.4,0,0,0,.2,0,.2,0,0,0,0,.1,0,.2s0,.1,0,.2c0,0,0,0-.2.1,0,0-.3,0-.5,0Z" style="fill: #00388a; fill-rule: evenodd;"/>
    <path d="M241,0c-1.3,0-2.4,1.1-2.4,2.4s1.1,2.4,2.4,2.4,2.4-1.1,2.4-2.4-1.1-2.4-2.4-2.4ZM241,4.4c-1.1,0-2-.9-2-2s.9-2,2-2,2,.9,2,2-.9,2-2,2Z" style="fill: #00388a; fill-rule: evenodd;"/>
  </g>
  <g>
    <rect x="18.4" y="38.1" width="7.2" height="1.1" style="fill: url(#Gradiente_sem_nome_16);"/>
    <g>
      <polyline points="69.6 22.6 69.6 22.6 69.6 22.6 69.6 22.6 69.6 22.6" style="fill: #9a999e; fill-rule: evenodd;"/>
      <polyline points="69.6 22.6 69.6 22.6 69.6 22.6 69.6 22.6 69.6 22.6" style="fill: #9a999e; fill-rule: evenodd;"/>
      <polyline points="87 15.3 87 15.3 86.9 15.3 87 15.3 87 15.3" style="fill: #9a999e; fill-rule: evenodd;"/>
      <polyline points="87 15.3 87 15.3 86.9 15.3 87 15.3 87 15.3" style="fill: #9a999e; fill-rule: evenodd;"/>
      <polyline points="22 30.6 22 30.6 22 30.6 22 30.6 22 30.6" style="fill: #9a999e; fill-rule: evenodd;"/>
      <polyline points="22 30.6 22 30.6 22 30.6 22 30.6 22 30.6" style="fill: #9a999e; fill-rule: evenodd;"/>
      <polyline points="51.2 18.5 51.2 18.5 51.2 18.5 51.2 18.5 51.2 18.5" style="fill: #9a999e; fill-rule: evenodd;"/>
      <polyline points="51.2 18.5 51.2 18.5 51.2 18.5 51.2 18.5 51.2 18.5" style="fill: #9a999e; fill-rule: evenodd;"/>
      <ellipse cx="43.5" cy="22" rx="43" ry="14.6" style="fill: url(#Gradiente_sem_nome_161);"/>
      <path d="M77.1,22.5v-1.4c0-1.1-.3-1.9-.9-2.5-.7-.6-1.8-1.1-3.4-1.4-1.6-.4-3.7-.5-6.2-.5s-3.8.1-5.4.5c-1.6.3-2.7.7-3.4,1.3-.7.6-1.1,1.3-1.1,2.3v3.3c0,.8.2,1.5.5,1.9.3.4.9.8,1.7,1.2.8.4,1.9.6,3.4.9,1.4.2,3.1.3,5,.3s3.6-.1,4.8-.3c1.3-.2,2.3-.5,3.2-.9.8-.4,1.3-.8,1.5-1.2.2-.4.3-.9.3-1.6v-.8h-8.3v1.5c0,.6-.1.9-.3,1.1-.2.2-.7.3-1.3.3s-.9,0-1.1-.2c-.2-.1-.3-.5-.3-1v-2.5h11.4ZM65.7,20c0-.6,0-1,.2-1.2.1-.1.5-.2,1.1-.2s.8,0,1,.3c.2.2.2.5.2,1.1v.9h-2.6v-.9Z" style="fill: #fff;"/>
      <path d="M53.9,16.5v10.3c0,1.2,0,2-.2,2.5s-.5.8-1,1.1c-.6.3-1.3.6-2.3.7-.9.2-2.4.2-4.3.2h-3.4v-2.1c1.1,0,1.7,0,1.8-.2.1-.1.2-.8.2-2v-10.7h9.2Z" style="fill: #fff;"/>
      <rect x="44.7" y="14.7" width="9.2" height="1.4" style="fill: #fff;"/>
      <path d="M29.7,16.7v1.1c.7-.4,1.5-.7,2.4-1,.9-.2,2-.3,3.2-.3s2.8.1,3.7.4c1,.3,1.6.6,1.9,1.1.3.4.4,1.2.4,2.2v8.1h-8.9v-8c0-.8,0-1.3-.2-1.5-.1-.2-.5-.3-1.1-.3s-1,.1-1.2.3c-.2.2-.2.7-.2,1.6v7.8h-8.9v-11.6h8.9Z" style="fill: #fff;"/>
      <rect x="8.5" y="16.6" width="9.2" height="11.6" style="fill: #fff;"/>
      <rect x="8.5" y="14.6" width="9.2" height="1.5" style="fill: #fff;"/>
    </g>
    <g>
      <polyline points="35.5 46.7 35.5 46.7 35.5 46.7 35.5 46.7 35.5 46.7" style="fill: #9a999e; fill-rule: evenodd;"/>
      <polyline points="35.5 46.7 35.5 46.7 35.5 46.7 35.5 46.7 35.5 46.7" style="fill: #9a999e; fill-rule: evenodd;"/>
      <g>
        <path d="M87.8,54.1h-8.9v4.8h1.3v-1.9h7.6c.4,0,.7-.3.7-.7v-1.6c0-.3-.3-.7-.7-.7ZM86.9,55.9h-6.8v-.5h6.8c.2,0,.3.1.3.3s-.1.3-.3.3Z" style="fill: #00408f; fill-rule: evenodd;"/>
        <rect x="76.9" y="54.1" width="1.3" height="4.8" style="fill: #00408f;"/>
        <polygon points="74.9 55.9 68.1 55.9 68.1 54.1 66.7 54.1 66.7 58.9 68.1 58.9 68.1 57.1 74.9 57.1 74.9 58.9 76.2 58.9 76.2 54.1 74.9 54.1 74.9 55.9" style="fill: #00408f; fill-rule: evenodd;"/>
        <path d="M56.4,55v3c0,.5.4.9,1,.9h8.5v-1.4h-8c0,0-.1,0-.1-.1v-1.9c0,0,0-.1.1-.1h8v-1.4h-8.5c-.6,0-1,.5-1,.9Z" style="fill: #00408f; fill-rule: evenodd;"/>
        <path d="M49.7,57c.4,0,.7-.3.7-.7v-1.6c0-.3-.3-.7-.7-.7h-8.8v4.8h1.3v-1.9h6.1l.9,1.9h1.4l-.9-1.9h0ZM48.9,55.9h-6.7v-.5h6.7c.2,0,.3.1.3.3s-.1.3-.3.3Z" style="fill: #00408f; fill-rule: evenodd;"/>
        <polygon points="30.8 58.9 40.5 58.9 40.5 57.6 32.2 57.6 32.2 57 40.5 57 40.5 55.8 32.2 55.8 32.2 55.2 40.5 55.2 40.5 54.1 30.8 54.1 30.8 58.9" style="fill: #00408f; fill-rule: evenodd;"/>
        <path d="M28.8,57.4c0,.1,0,.2-.2.2h-2.4v-3.5h-1.4v3.5h-2.4c-.1,0-.2-.1-.2-.2v-3.3h-1.4v4c0,.4.4.8.9.8h7.8c.5,0,.9-.4.9-.8v-4h-1.5v3.3Z" style="fill: #00408f; fill-rule: evenodd;"/>
        <path d="M19,54.1h-7.5c-.6,0-1,.5-1,.9v3c0,.5.4.9,1,.9h7.5c.6,0,1-.5,1-.9v-3c0-.5-.4-.9-1-.9ZM18.6,57.5c0,0,0,.1-.1.1h-6.5c0,0-.1,0-.1-.1v-1.9c0,0,0-.1.1-.1h6.5c0,0,.1,0,.1.1v1.9Z" style="fill: #00408f; fill-rule: evenodd;"/>
        <path d="M9.2,54.1H.4v4.8h1.3v-1.9h7.6c.4,0,.7-.3.7-.7v-1.6c0-.3-.3-.7-.7-.7ZM8.3,55.9H1.6v-.5h6.7c.2,0,.3.1.3.3s-.1.3-.3.3Z" style="fill: #00408f; fill-rule: evenodd;"/>
      </g>
      <path d="M85.9,50.4h2.6l-.2.5h-1.6v.4c-.1,0,1.4,0,1.4,0v.5h-1.7v.5c-.1,0,1.5,0,1.5,0l-.2.5h-2.7l.7-2.4ZM84.1,51.8l.8.2c-.1.2-.2.3-.4.4-.2.1-.3.2-.5.3-.2,0-.4,0-.7,0s-.6,0-.8-.1c-.2,0-.3-.2-.4-.4-.1-.2-.1-.4,0-.7.1-.4.3-.7.7-.9.3-.2.8-.3,1.3-.3s.7,0,.9.2c.2.1.3.3.3.6h-.9c0,0,0,0,0,0,0,0,0,0-.2-.1,0,0-.2,0-.3,0-.2,0-.4,0-.6.2-.1,0-.2.3-.3.5,0,.3,0,.4,0,.5,0,0,.2.1.4.1s.3,0,.5-.1c.1,0,.2-.2.3-.3ZM78.8,50.4h.9l.8,1.3.4-1.3h.9l-.7,2.4h-.9l-.8-1.3-.4,1.3h-.9l.7-2.4ZM76.6,51.9v-.8c0,0-.7.8-.7.8h.7ZM76.7,52.4h-1.1l-.3.4h-1l1.9-2.4h1.1l.5,2.4h-1v-.4ZM71.2,50.4h1.3v1.4c0,0,1-1.4,1-1.4h1.3l-.7,2.4h-.8l.5-1.8-1.2,1.8h-.7v-1.8c0,0-.6,1.8-.6,1.8h-.8l.7-2.4ZM68.4,51.4h.4s.1,0,.3,0c0,0,.1,0,.2,0,0,0,0,0,.1-.1,0,0,0-.1,0-.2,0,0-.2,0-.3,0h-.4v.5ZM67,52.8l.7-2.4h1.6c.3,0,.5,0,.7,0,.1,0,.3.1.3.2,0,.1,0,.2,0,.4,0,.1-.1.2-.2.3-.1,0-.2.2-.4.2,0,0-.2,0-.4,0,.1,0,.2,0,.2,0,0,0,0,0,.1.1,0,0,0,.1,0,.1l.3.7h-1.1l-.3-.7c0,0,0-.2-.1-.2,0,0-.1,0-.2,0h0l-.3,1h-1ZM64.6,51.6c0,.2,0,.4,0,.5,0,.1.2.2.4.2s.4,0,.5-.2c.1-.1.3-.3.3-.5,0-.2,0-.4,0-.5,0-.1-.2-.2-.4-.2s-.4,0-.5.2c-.2.1-.3.3-.3.5ZM63.6,51.6c.1-.4.3-.7.7-.9.4-.2.8-.3,1.3-.3s.9.1,1.1.3c.2.2.3.5.2.9,0,.3-.2.5-.4.7s-.4.3-.7.4c-.3,0-.6.1-.9.1s-.6,0-.8-.1c-.2,0-.4-.2-.4-.4,0-.2,0-.4,0-.7ZM61.1,50.4h2.4l-.2.5h-1.4v.4c-.1,0,1.1,0,1.1,0v.5h-1.4l-.3,1h-1l.7-2.4ZM58.4,51.4h.4s.1,0,.3,0c0,0,.1,0,.2,0,0,0,0,0,.1-.1,0,0,0-.1,0-.2,0,0-.2,0-.3,0h-.4v.5ZM57,52.8l.7-2.4h1.6c.3,0,.5,0,.7,0,.1,0,.3.1.3.2,0,.1,0,.2,0,.4,0,.1-.1.2-.2.3-.1,0-.2.2-.4.2,0,0-.2,0-.4,0,.1,0,.2,0,.2,0,0,0,0,0,.1.1,0,0,0,.1,0,.1l.3.7h-1.1l-.3-.7c0,0,0-.2-.1-.2,0,0-.1,0-.2,0h0l-.3,1h-1ZM54.5,50.4h2.6l-.2.5h-1.6v.4c-.1,0,1.4,0,1.4,0v.5h-1.7v.5c-.1,0,1.5,0,1.5,0l-.2.5h-2.7l.7-2.4ZM52,51.4h.2c.2,0,.3,0,.4,0s.1-.1.2-.2c0,0,0-.1,0-.2,0,0-.2,0-.4,0h-.3l-.2.5ZM51.3,50.4h1.6c.4,0,.6,0,.7.2.1.1.2.3.1.5,0,.2-.2.4-.5.6-.2.1-.5.2-.9.2h-.5l-.3.9h-1l.7-2.4Z" style="fill: #bf0811;"/>
      <path d="M36.3,41.2c-.5,0-.8,0-.9.2-.1.1-.2.4-.2,1v.7h2.1v-.7c0-.5,0-.8-.2-.9-.1-.1-.4-.2-.8-.2Z" style="fill: none;"/>
      <path d="M8.9,41.7c-.1-.1-.4-.2-.9-.2s-.7,0-.9.2c-.1.1-.2.3-.2.7v4.4c0,.4,0,.6.2.7.1.1.4.2.8.2s.7,0,.9-.2c.1-.1.2-.4.2-.9v-4.2c0-.3,0-.6-.2-.7Z" style="fill: none;"/>
      <path d="M53.4,41.4c.1,0,.3,0,.4,0-.1,0-.3,0-.4,0Z" style="fill: none;"/>
      <path d="M70.9,41.3c-.5,0-.8,0-1,.2-.1.1-.2.4-.2.9v.7h2.2v-.7c0-.5,0-.8-.2-.9-.1-.1-.4-.2-.8-.2Z" style="fill: none;"/>
      <polygon points="81.3 38.2 81.3 49 84.5 49.1 88.4 49.1 88.4 38.2 81.3 38.2" style="fill: url(#Gradiente_sem_nome_162);"/>
      <rect x="18.6" y="39.5" width="7.2" height="9.5" style="fill: url(#Gradiente_sem_nome_163);"/>
      <path d="M9.1,40.6c-.6-.2-1.2-.4-2-.6-.7-.1-1.5-.2-2.4-.2s-2.1.1-2.9.3c-.8.2-1.3.5-1.6.8-.2.3-.3.8-.3,1.5v4.2c0,.7.1,1.1.3,1.4.2.3.7.6,1.5.8.8.2,1.7.3,2.8.3s1.6,0,2.3-.2c.7-.1,1.5-.3,2.1-.6v.6h7v-11h-7v2.6ZM9.1,46.5c0,.5,0,.8-.2.9-.2.1-.5.2-.9.2s-.7,0-.8-.2c-.1-.1-.2-.4-.2-.7v-4.4c0-.4,0-.6.2-.7.1-.1.4-.2.9-.2s.7,0,.9.2c.1.1.2.3.2.7v4.2Z" style="fill: url(#Gradiente_sem_nome_164);"/>
      <path d="M41,40c-1.3-.3-3-.4-5-.4s-3.1.1-4.4.4c-1.3.2-2.2.6-2.8,1.1-.6.5-.8,1.1-.8,1.9v2.7c0,.7.1,1.2.4,1.6.3.4.7.7,1.4,1,.7.3,1.6.5,2.7.7,1.2.2,2.5.3,4.1.3s2.9,0,3.9-.3c1.1-.2,1.9-.4,2.6-.8.7-.3,1.1-.7,1.3-1,.2-.3.3-.7.3-1.3v-.6h-6.9v1.2c0,.5,0,.8-.3.9-.2.2-.5.2-1.1.2s-.7,0-.9-.2c-.2-.1-.2-.4-.2-.8v-2.1h9.5v-1.2c0-.9-.3-1.6-.8-2.1-.5-.5-1.5-.9-2.8-1.2ZM37.2,43h-2.1v-.7c0-.5,0-.8.2-1,.1-.1.4-.2.9-.2s.6,0,.8.2c.1.1.2.4.2.9v.7Z" style="fill: url(#Gradiente_sem_nome_165);"/>
      <path d="M75.6,40.1c-1.3-.3-3-.4-5-.4s-3.1.1-4.4.4c-1.3.2-2.2.6-2.8,1.1-.6.5-.9,1.1-.9,1.9v2.6c0,.7.1,1.2.4,1.5.3.4.7.7,1.4,1,.7.3,1.6.5,2.7.7,1.2.2,2.5.3,4.1.3s2.9,0,4-.3c1.1-.2,1.9-.4,2.6-.8.7-.3,1.1-.7,1.3-1,.2-.3.3-.7.3-1.3v-.7h-6.9v1.2c0,.5,0,.8-.3.9-.2.2-.5.2-1.1.2s-.8,0-.9-.2c-.2-.1-.3-.4-.3-.8v-2.1h9.5v-1.1c0-.9-.3-1.6-.8-2-.5-.5-1.4-.9-2.8-1.2ZM71.9,43.1h-2.2v-.7c0-.5,0-.8.2-.9s.4-.2,1-.2.7,0,.8.2c.1.1.2.4.2.9v.7Z" style="fill: url(#Gradiente_sem_nome_166);"/>
      <path d="M52.8,47.3c.1.1.4.2.8.2s.7,0,.9-.1c0-.1.1-.3.1-.5,0-.4-.1-.7-.4-.8-.3-.1-1.6-.4-4-1-1.7-.4-2.9-.8-3.5-1.1,0,0,0,0,0,0,0,0,0,0,0,0,0,0-.1,0-.2-.1,0,0,0,0,0,0,0,0-.2-.2-.3-.3,0,0,0,0,0,0h0c-.4-.5-.4-1.1-.3-1.7.1-.7.8-1.1.8-1.1,0,0,0,0,0,0,0,0,.1,0,.2-.1.5-.2,1.2-.4,2.1-.6.9-.1,1.9-.2,3-.3.2,0,.5,0,.6,0,.1,0,.2,0,.4,0,1.5,0,2.8,0,3.8.2,1,.2,1.9.4,2.4.6.4.2.6.3.8.5.1.1.3.3.3.3.1.2.2.5.2,1v.5h-6v-.6s0-.6-.2-.7-.3-.1-.5-.2c-.1,0-.3,0-.4,0-.4,0-.7,0-.9.2-.1,0-.2.2-.3.3,0,0,0,0,0,0,0,.4.1.7.4.8.3.1,1.6.4,4,1,1.4.3,2.3.6,3,.9.2,0,.3.1.4.2.6.4.9.9.9,1.5s-.2,1.2-.6,1.6-.3.2-.6.3c-.5.2-1.1.4-1.9.5-.9.1-1.9.2-3,.3-.2,0-.5,0-.6,0-.1,0-.2,0-.4,0-1.5,0-2.8,0-3.8-.2-.4,0-.8-.1-1.1-.2,0,0,0,0,0,0,0,0-1.7-.3-2.2-1.1s-.4-1.8-.4-1.8h6.1v1.1s0,.3.2.5Z" style="fill: url(#Gradiente_sem_nome_167);"/>
    </g>
  </g>
  <metadata>
    <sfw xmlns="http://ns.adobe.com/SaveForWeb/1.0/">
      <slices/>
      <sliceSourceBounds x="2606.49" y="-2147.53" width="2491.61" height="423.46" bottomLeftOrigin="true"/>
      <optimizationSettings>
        <targetSettings fileFormat="PNG24Format" targetSettingsID="0">
          <PNG24Format filtered="false" interlaced="false" matteColor="#FFFFFF" noMatteColor="false" transparency="true"/>
        </targetSettings>
      </optimizationSettings>
    </sfw>
  </metadata>
</svg>