<?xml version="1.0" encoding="UTF-8"?>
<svg id="Camada_1" xmlns="http://www.w3.org/2000/svg" width="109.8cm" height="31.2cm" xmlns:xlink="http://www.w3.org/1999/xlink" version="1.1" viewBox="0 0 3111.8 885.2">
  <!-- Generator: Adobe Illustrator 30.5.1, SVG Export Plug-In . SVG Version: 2.1.4 Build 3)  -->
  <defs>
    <linearGradient id="Gradiente_sem_nome_16" data-name="Gradiente sem nome 16" x1="371.6" y1="20" x2="371.6" y2="259.8" gradientUnits="userSpaceOnUse">
      <stop offset="0" stop-color="#00357a"/>
      <stop offset="1" stop-color="#003b85"/>
    </linearGradient>
    <linearGradient id="Gradiente_sem_nome_161" data-name="Gradiente sem nome 16" x1="924" y1="86.1" x2="996.3" y2="86.1" xlink:href="#Gradiente_sem_nome_16"/>
    <linearGradient id="Gradiente_sem_nome_162" data-name="Gradiente sem nome 16" x1="1588.3" y1="190.8" x2="1588.3" y2="80.7" xlink:href="#Gradiente_sem_nome_16"/>
    <linearGradient id="Gradiente_sem_nome_163" data-name="Gradiente sem nome 16" x1="960" y1="190" x2="960" y2="94.2" xlink:href="#Gradiente_sem_nome_16"/>
    <linearGradient id="Gradiente_sem_nome_164" data-name="Gradiente sem nome 16" x1="817.7" y1="191.8" x2="817.7" y2="79.2" xlink:href="#Gradiente_sem_nome_16"/>
    <linearGradient id="Gradiente_sem_nome_165" data-name="Gradiente sem nome 16" x1="1101" y1="190.7" x2="1101" y2="95.2" xlink:href="#Gradiente_sem_nome_16"/>
    <linearGradient id="Gradiente_sem_nome_166" data-name="Gradiente sem nome 16" x1="1447.9" y1="190.7" x2="1447.9" y2="96.3" xlink:href="#Gradiente_sem_nome_16"/>
    <linearGradient id="Gradiente_sem_nome_167" data-name="Gradiente sem nome 16" x1="1273.3" y1="190.5" x2="1273.3" y2="95.7" xlink:href="#Gradiente_sem_nome_16"/>
  </defs>
  <path d="M3111.8,885.2s0,0,0,0c0,0,0,0,0,0,0,0,0,0,0,0,0,0,0,0,0,0" style="fill: #9a999e; fill-rule: evenodd;"/>
  <path d="M3111.8,885.2s0,0,0,0c0,0,0,0,0,0,0,0,0,0,0,0,0,0,0,0,0,0" style="fill: #9a999e; fill-rule: evenodd;"/>
  <g>
    <path d="M1696.7,72.2c-.8-19.4-16.5-35.1-35.9-35.7-16.4-.5-30.6,9.7-36,24.2h-91.7v33c-8-5.4-18.5-9.5-32-12.5-14.9-3.3-32.9-4.9-55.1-4.9s-34.2,1.4-48.2,4c-16.6,3.1-28.7,8-37.1,14.8h0c-1.2,1-2.2,2-3.3,3-1.4-1.7-3-3.3-4.6-4.6h-.1c-3.2-2.6-6.9-4.8-12.4-7.4-7.3-3.4-17-5.9-29.7-7.8-11.4-1.7-25.3-2.6-41.1-2.6s-2.3,0-3.5,0c-.5,0-1,0-1.5,0-1.7,0-3.6,0-5.6.2-11.9.4-22.8,1.4-32.4,3-7.1,1.2-13.2,2.7-18.4,4.5l-.8.3c-2.7.9-5.4,2.1-7.9,3.4l-1,.5c-.6.3-1.2.7-1.8,1-1.4.8-4.5,2.8-7.8,6.3-8-6.4-19.5-11.2-35-14.7-14.9-3.3-33-5-55.1-5s-34.2,1.4-48.2,4.1c-13.9,2.7-24.7,6.6-32.8,12v-30.3h-208.6v18.6c-7.2-1-14.8-1.5-23.1-1.5-13.2,0-24.4,1.3-34.3,4-11.6,3.2-19.3,7.1-24.5,12.7-4.9-5.9-10.7-11.6-17.5-17-19.6-15.8-47.1-29.7-81.6-41.5C559.1,12.9,468.4,0,372.3,0S185.4,12.9,116.9,36.2c-34.6,11.8-62,25.7-81.6,41.5-10.9,8.7-19.3,18.1-25.2,27.9C3.4,116.7,0,128.4,0,140.3s3.4,23.5,10.1,34.7c5.9,9.8,14.3,19.1,25.2,27.9,19.6,15.8,47.1,29.7,81.6,41.5,68.5,23.3,159.2,36.2,255.4,36.2s186.9-12.9,255.4-36.2c34.6-11.8,62-25.7,81.6-41.5,5-4,9.5-8.2,13.5-12.5.6,1.1,1.3,2.1,2.1,3.1,5.1,6.7,13.4,11.5,26.1,15.1,9.9,2.8,21,4.1,33.9,4.1s16.3-.6,23.9-1.9h0s95.5,0,95.5,0h113.1v-15.9c2.8,1.8,6,3.6,9.5,5.2,8.4,3.8,19.2,6.7,33,8.7,12.9,1.9,27.2,2.8,43.7,2.8s31.4-.9,43-2.9c12.6-2.1,23.1-5.2,31.9-9.7h.1c5.9-3.1,10.6-6.1,14.2-9.2,4.6,5.4,11.3,9.7,20.2,13.1,5.6,2.1,10.6,3.3,11.9,3.5,1.7.4,3.5.8,5.4,1.1l-4,13.2h-98.7s-65.9,0-65.9,0h-208.7c-4.2,0-8.2.8-11.9,2.3-3.4-1.5-7.2-2.3-11.3-2.3h-109.1v89.3h53.6v-19.2h49.8c4.4,11.2,15.7,19.2,28.8,19.2h75.6c4.6,0,8.9-1,12.8-2.7,3.8,1.7,8,2.7,12.4,2.7h78.5c.3,0,.6,0,.9,0h148v-19.2h28.5l9.4,19.2h59.7l-17-34.6c1.7-3.5,2.7-7.4,2.7-11.6v-15.3h19.1c0,.7,0,1.4,0,2.1v29.7c0,16.4,13.8,29.8,30.8,29.8h106.1s20.5,0,20.5,0v-18.5h27.5v18.5h74.4s19.3,0,19.3,0v-19.2h56.3c15.3,0,27.8-12.1,27.8-27v-16.1c0-6.6-2.5-12.7-6.6-17.4l5.7-18.6h0s.2,0,.2,0v-103.6c4.3,1.8,9.1,2.8,14.1,2.8,21,0,37.9-17.5,37.1-38.6Z" style="fill: #fff;"/>
    <polyline points="609.5 145 609.5 145 609.5 145 609.5 145 609.5 145" style="fill: #9a999e; fill-rule: evenodd;"/>
    <polyline points="609.5 145 609.5 145 609.5 145 609.5 145 609.5 145" style="fill: #9a999e; fill-rule: evenodd;"/>
    <path d="M703.3,106s0,0,0,0,0,0,0,0,0,0,0,0,0,0,0,0" style="fill: #9a999e; fill-rule: evenodd;"/>
    <path d="M703.3,106s0,0,0,0,0,0,0,0,0,0,0,0,0,0,0,0" style="fill: #9a999e; fill-rule: evenodd;"/>
    <polyline points="1093.6 166.1 1093.6 166.1 1093.6 166.1 1093.6 166.1 1093.6 166.1" style="fill: #9a999e; fill-rule: evenodd;"/>
    <polyline points="1093.6 166.1 1093.6 166.1 1093.6 166.1 1093.6 166.1 1093.6 166.1" style="fill: #9a999e; fill-rule: evenodd;"/>
    <path d="M170.9,231.2s0,0,0,0,0,0,0,0c0,0,0,0,0,0,0,0,0,0,0,0" style="fill: #9a999e; fill-rule: evenodd;"/>
    <path d="M170.9,231.2s0,0,0,0,0,0,0,0c0,0,0,0,0,0,0,0,0,0,0,0" style="fill: #9a999e; fill-rule: evenodd;"/>
    <path d="M459,111.2s0,0,0,0,0,0,0,0,0,0,0,0,0,0,0,0" style="fill: #9a999e; fill-rule: evenodd;"/>
    <path d="M459,111.2s0,0,0,0,0,0,0,0,0,0,0,0,0,0,0,0" style="fill: #9a999e; fill-rule: evenodd;"/>
    <g>
      <path d="M1617.7,240.6h-89.5v48.5h12.8v-19.2h76.7c4.3,0,7.4-3.2,7.4-6.6v-16.1c0-3.4-3.1-6.6-7.4-6.6ZM1608.8,258.7h-67.7v-5.5h67.7c1.7,0,2.8,1.4,2.8,2.7s-1.1,2.7-2.8,2.7Z" style="fill: #00408f; fill-rule: evenodd;"/>
      <rect x="1508.3" y="240.7" width="13.5" height="48.5" style="fill: #00408f;"/>
      <polygon points="1488.1 258.6 1419.8 258.6 1419.8 240.7 1406.3 240.7 1406.3 289.2 1419.8 289.2 1419.8 270.7 1488.1 270.7 1488.1 289.2 1501.6 289.2 1501.6 240.7 1488.1 240.7 1488.1 258.6" style="fill: #00408f; fill-rule: evenodd;"/>
      <path d="M1303.2,250.1v29.7c0,4.9,4.3,9.4,10.4,9.4h85.8v-13.6h-80.5c-.7,0-1.1-.7-1.1-1.2v-19.1c0-.5.4-1.2,1.1-1.2h80.5v-13.6h-85.8c-6.1,0-10.4,4.6-10.4,9.4Z" style="fill: #00408f; fill-rule: evenodd;"/>
      <path d="M1236,270c4.3,0,7.4-3.2,7.4-6.6v-16.1c0-3.4-3.1-6.6-7.4-6.6h-88.7v48.5h12.8v-19.2h61.6l9.4,19.2h14.2l-9.4-19.2h0ZM1227.1,258.7h-67v-5.5h67c1.7,0,2.8,1.4,2.8,2.7s-1.1,2.7-2.8,2.7Z" style="fill: #00408f; fill-rule: evenodd;"/>
      <polygon points="1045.6 289.2 1142.8 289.2 1142.8 275.4 1060.1 275.4 1060.1 269.4 1142.8 269.4 1142.8 257.9 1060.1 257.9 1060.1 252.1 1142.8 252.1 1142.8 240.7 1045.6 240.7 1045.6 289.2" style="fill: #00408f; fill-rule: evenodd;"/>
      <path d="M1025.5,273.6c0,1-.8,2.1-2.2,2.1h-24.5v-35.1h-13.8v35.1h-24.5c-1.3,0-2.2-1.1-2.2-2.1v-33h-14.3v40.4c0,4.2,3.7,8.1,9,8.1h78.5c5.3,0,9-4,9-8.1v-40.4h-15.1v33Z" style="fill: #00408f; fill-rule: evenodd;"/>
      <path d="M927.9,240.7h-75.6c-6.1,0-10.4,4.6-10.4,9.4v29.7c0,4.9,4.3,9.4,10.4,9.4h75.6c6.1,0,10.4-4.6,10.4-9.4v-29.7c0-4.9-4.3-9.4-10.4-9.4ZM923.8,274.5c0,.5-.4,1.2-1.1,1.2h-65.1c-.7,0-1.1-.7-1.1-1.2v-19.1c0-.5.4-1.2,1.1-1.2h65.1c.7,0,1.1.7,1.1,1.2v19.1Z" style="fill: #00408f; fill-rule: evenodd;"/>
      <path d="M829.2,240.6h-88.7v48.5h12.8v-19.2h75.9c4.3,0,7.4-3.2,7.4-6.6v-16.1c0-3.4-3.1-6.6-7.4-6.6ZM820.3,258.7h-67v-5.5h67c1.7,0,2.8,1.4,2.8,2.7s-1.1,2.7-2.8,2.7Z" style="fill: #00408f; fill-rule: evenodd;"/>
    </g>
    <path d="M371.6,20c194.3,0,351.9,53.7,351.9,119.9s-157.6,119.9-351.9,119.9S19.7,206.1,19.7,139.9,177.3,20,371.6,20Z" style="fill: url(#Gradiente_sem_nome_16); fill-rule: evenodd;"/>
    <rect x="924" y="80.4" width="72.3" height="11.5" style="fill: url(#Gradiente_sem_nome_161);"/>
    <path d="M671.2,143.9v-11.2c0-8.9-2.2-15.8-7.6-20.7-5.4-4.9-14.4-8.8-27.7-11.8-13.3-3-30.1-4.5-50.5-4.5s-31.4,1.2-44.3,3.7c-12.9,2.5-22.4,6-28,10.6-5.6,4.6-8.6,10.9-8.6,19v26.8c0,6.8,1.4,12,4,15.6,2.5,3.6,7.2,6.8,13.8,9.8,6.5,3,15.8,5.3,27.5,7,11.8,1.7,25.4,2.5,40.8,2.5s29.2-.8,39.6-2.6c10.5-1.7,19.2-4.3,26.1-7.8,6.8-3.5,10.7-6.7,12.6-9.7,1.8-3,2.3-7.4,2.3-13.1v-6.8h-68.4v12.1c0,4.6-.9,7.6-2.7,9.2-1.8,1.6-5.5,2.4-11,2.4s-7.5-.6-9.1-1.8c-1.5-1.2-2.4-3.9-2.4-8v-20.9h93.7ZM577.6,123.3c0-5.2.7-8.3,1.9-9.5,1.2-1.2,4.4-1.8,9.4-1.8s6.8.7,8.1,2.1c1.3,1.4,1.9,4.5,1.9,9.2v7.1h-21.4v-7.1Z" style="fill: #fff;"/>
    <path d="M480.8,95.3v84.7c0,10-.4,16.7-1.4,20.2-.9,3.5-3.7,6.6-8.3,9.3-4.6,2.7-10.8,4.7-18.6,5.9-7.8,1.3-19.4,1.9-35,1.9h-28.2v-17.1c8.7,0,13.6-.4,14.7-1.3,1-.9,1.6-6.2,1.6-16.1v-87.5h75.1Z" style="fill: #fff;"/>
    <rect x="405.6" y="80.1" width="75.1" height="11.4" style="fill: #fff;"/>
    <path d="M282.8,96.3l.2,8.7c5.2-3.5,11.7-6.1,19.4-7.8,7.7-1.7,16.5-2.6,26.5-2.6s22.7,1.2,30.7,3.5c8,2.3,13.1,5.3,15.3,8.8,2.3,3.6,3.4,9.5,3.4,17.7v66.3h-72.9v-65.5c0-6.5-.6-10.5-1.7-11.9-1-1.4-4.1-2.1-9-2.1s-8.4.8-9.7,2.5c-1.4,1.6-2,6-2,13.1v63.9h-73v-94.6h72.8Z" style="fill: #fff;"/>
    <rect x="108.7" y="96.1" width="75.1" height="94.7" style="fill: #fff;"/>
    <rect x="108.7" y="79.8" width="75.1" height="12" style="fill: #fff;"/>
    <path d="M1598.7,204h26.2l-1.5,5.1h-16.4l-1.1,3.8h15.2l-1.5,4.8h-15.2l-1.4,4.7h16.9l-1.6,5.4h-26.7l7.1-23.7ZM1581.1,217.9l8,1.9c-1.1,1.8-2.5,3.3-4.1,4.5-1.6,1.2-3.4,2.1-5.4,2.7-2,.6-4.5.9-7.3.9s-6.2-.4-8.1-1.1c-2-.7-3.4-2.1-4.5-3.9-1-1.9-1.1-4.3-.2-7.2,1.2-3.9,3.5-6.9,6.9-9,3.4-2.1,7.7-3.2,12.8-3.2s7,.6,8.9,1.8c1.9,1.2,3.1,3.1,3.4,5.6l-9.1,1.4c0-.7-.2-1.2-.5-1.6-.4-.6-.9-1-1.6-1.3-.7-.3-1.5-.5-2.5-.5-2.2,0-4.1.7-5.7,2-1.2,1-2.1,2.5-2.7,4.6-.8,2.6-.8,4.4,0,5.4.8,1,2.1,1.5,4.1,1.5s3.4-.4,4.6-1.2c1.2-.8,2.2-1.9,3.1-3.4ZM1527.4,204h9.1l8,13.1,3.9-13.1h9.3l-7.1,23.7h-9.3l-7.9-13-3.9,13h-9.2l7.1-23.7ZM1505.9,218.6l-.9-8.5-6,8.5h6.9ZM1506.5,223.7h-11.1l-2.8,3.9h-10l19.1-23.7h10.7l4.8,23.7h-10.3l-.4-3.9ZM1451,204h12.9l.6,14.4,9.3-14.4h12.9l-7.1,23.7h-8l5.4-18-11.6,18h-7.3l-.7-18-5.4,18h-8l7.1-23.7ZM1423.7,213.6h4.1c.4,0,1.3-.1,2.7-.3.7,0,1.3-.3,1.8-.7.5-.4.9-.9,1-1.4.2-.8,0-1.4-.4-1.8-.5-.4-1.7-.6-3.5-.6h-4.3l-1.5,4.8ZM1409.7,227.6l7.1-23.7h16.3c3,0,5.3.2,6.8.6,1.5.4,2.6,1.1,3.2,2.2.7,1.1.8,2.3.3,3.8-.4,1.3-1.1,2.4-2.2,3.4-1,1-2.3,1.7-3.8,2.3-.9.4-2.2.7-3.7.9,1.1.3,1.8.6,2.3.9.3.2.7.6,1.2,1.2.5.6.8,1.1.9,1.5l2.7,6.8h-11.1l-3.1-7.2c-.4-.9-.8-1.5-1.2-1.8-.6-.4-1.3-.5-2.2-.5h-.9l-2.9,9.6h-9.8ZM1384.8,215.8c-.7,2.4-.6,4.1.2,5.1.9,1,2.3,1.6,4.4,1.6s3.9-.5,5.4-1.5c1.5-1,2.6-2.9,3.4-5.5.7-2.2.6-3.8-.3-4.9-.9-1-2.4-1.5-4.4-1.5s-3.7.5-5.2,1.6c-1.5,1-2.6,2.8-3.4,5.2ZM1375,215.8c1.2-3.9,3.5-6.9,7-9,3.5-2.2,7.9-3.2,13-3.2s9,1.1,11.2,3.2c2.2,2.1,2.8,5.1,1.6,8.9-.8,2.8-2.1,5-3.9,6.8s-4,3.1-6.7,4.1c-2.7,1-5.7,1.5-9.3,1.5s-6.4-.4-8.5-1.3c-2.1-.9-3.6-2.2-4.5-4-.9-1.8-.9-4.1-.1-6.9ZM1350.3,204h24.2l-1.5,5.1h-14.4l-1.2,4.1h12.3l-1.4,4.8h-12.3l-2.9,9.6h-9.8l7.1-23.7ZM1322.9,213.6h4.1c.4,0,1.3-.1,2.7-.3.7,0,1.3-.3,1.8-.7.5-.4.9-.9,1-1.4.2-.8,0-1.4-.4-1.8-.5-.4-1.7-.6-3.5-.6h-4.3l-1.5,4.8ZM1308.8,227.6l7.1-23.7h16.3c3,0,5.3.2,6.8.6,1.5.4,2.6,1.1,3.2,2.2.7,1.1.8,2.3.3,3.8-.4,1.3-1.1,2.4-2.2,3.4-1,1-2.3,1.7-3.8,2.3-.9.4-2.2.7-3.7.9,1.1.3,1.8.6,2.3.9.3.2.7.6,1.2,1.2.5.6.8,1.1.9,1.5l2.7,6.8h-11.1l-3.1-7.2c-.4-.9-.8-1.5-1.2-1.8-.6-.4-1.3-.5-2.2-.5h-.9l-2.9,9.6h-9.8ZM1283.8,204h26.2l-1.5,5.1h-16.4l-1.1,3.8h15.2l-1.5,4.8h-15.2l-1.4,4.7h16.9l-1.6,5.4h-26.7l7.1-23.7ZM1258.6,214.1h2.4c1.9,0,3.3-.2,4.2-.7s1.5-1.1,1.7-1.9c.2-.7,0-1.4-.4-1.9-.5-.5-1.7-.8-3.5-.8h-2.8l-1.6,5.3ZM1251.8,204h16.3c3.5,0,6,.6,7.4,1.9,1.4,1.3,1.7,3.1,1,5.4-.7,2.4-2.3,4.3-4.6,5.6-2.3,1.3-5.5,2-9.4,2h-5.4l-2.6,8.8h-9.8l7.1-23.7Z" style="fill: #bf0811;"/>
    <g>
      <path d="M1666.3,78c-1-1.3-1.8-2.3-2.4-2.8-.6-.5-1.3-1-2.2-1.4,1.8-.2,3.2-.7,4.1-1.6.9-.8,1.4-1.9,1.4-3.2s-.3-1.9-.9-2.7c-.6-.8-1.4-1.3-2.4-1.6-1-.3-2.6-.5-4.8-.5h-8.8v17.1h4.2v-7.1h.8c1,0,1.7,0,2.1.2.4.1.9.4,1.3.7.4.3,1.1,1.2,2.2,2.5l3,3.7h5l-2.5-3.3ZM1657.5,71.5h-3.1v-4.3h3.2c1.7,0,2.7,0,3,0,.7,0,1.2.3,1.6.7.4.4.6.8.6,1.4s-.1.9-.4,1.3c-.3.3-.7.6-1.2.7-.5.1-1.7.2-3.7.2Z" style="fill: #00388a; fill-rule: evenodd;"/>
      <path d="M1658.8,56.5c-9.3,0-16.8,7.5-16.8,16.8s7.5,16.8,16.8,16.8,16.8-7.5,16.8-16.8-7.5-16.8-16.8-16.8ZM1658.8,87.1c-7.6,0-13.8-6.2-13.8-13.8s6.2-13.8,13.8-13.8,13.8,6.2,13.8,13.8-6.2,13.8-13.8,13.8Z" style="fill: #00388a; fill-rule: evenodd;"/>
    </g>
    <path d="M1101.2,111.5c-5.1,0-8.3.6-9.5,1.8-1.2,1.2-1.9,4.4-1.9,9.6v6.6h20.8v-6.6c0-4.8-.3-7.8-1.6-9.2-1.4-1.4-3.7-2.1-7.8-2.1Z" style="fill: none;"/>
    <path d="M826.3,115.8c-1.4-1.1-4.3-1.7-8.6-1.7s-7.1.5-8.6,1.5c-1.4,1-2.4,3.3-2.4,6.9v44.3c0,3.7,1,6.1,2.4,7.3,1.4,1.2,4.2,1.7,8.1,1.7s7.4-.7,9-2c1.5-1.3,2.2-4.5,2.2-9.5v-41.9c0-3.3-.6-5.5-2.1-6.7Z" style="fill: none;"/>
    <path d="M1273,112.8c1.5,0,3,0,4.3.2-1.2-.1-2.6-.2-4.3-.2Z" style="fill: none;"/>
    <path d="M1448.6,112.4c-5.1,0-8.5.6-9.7,1.8-1.2,1.2-2.2,4.3-2.2,9.4v6.8h21.7v-6.8c0-4.7-.5-7.8-1.8-9.1-1.4-1.4-3.9-2.1-8-2.1Z" style="fill: none;"/>
    <polygon points="1552.7 80.7 1552.3 190 1584.7 190.7 1624.4 190.8 1624.4 80.7 1552.7 80.7" style="fill: url(#Gradiente_sem_nome_162);"/>
    <rect x="923.9" y="94.2" width="72.3" height="95.8" style="fill: url(#Gradiente_sem_nome_163);"/>
    <path d="M828.4,105.4c-6.3-2.4-12.4-4.3-19.7-5.5-7.2-1.2-15.1-1.8-23.9-1.8s-20.9,1.1-29,3.3c-8.1,2.2-13.4,4.8-15.6,7.7-2.3,2.9-3.4,7.8-3.4,14.8v42.4c0,6.7,1.2,11.5,3.5,14.5,2.3,3,7.4,5.6,15.4,7.8,8,2.3,17.5,3.4,28.4,3.4s15.8-.7,23.2-2.1c7.4-1.4,14.8-3.4,21.2-6.1v6.3h70.2v-110.8h-70.2v26.2ZM828.4,164.4c0,5-.7,8.2-2.2,9.5-1.5,1.3-4.5,2-9,2s-6.8-.6-8.1-1.7c-1.4-1.2-2.3-3.6-2.3-7.3v-44.3c0-3.6,1-5.8,2.4-6.9,1.4-1,4.4-1.5,8.5-1.5s7.1.6,8.6,1.7c1.5,1.1,2.2,3.4,2.2,6.7v41.9Z" style="fill: url(#Gradiente_sem_nome_164);"/>
    <path d="M1148.4,99.7c-13.3-3-30.2-4.5-50.7-4.5s-31.5,1.2-44.4,3.7c-12.9,2.5-22.1,6-27.7,10.7-5.6,4.6-8.3,11-8.3,19.1v26.9c0,6.9,1.1,12.1,3.6,15.7,2.5,3.6,7,6.9,13.6,9.9,6.5,3,15.7,5.3,27.5,7,11.8,1.7,25.4,2.6,40.8,2.6s29.1-.9,39.6-2.6c10.5-1.7,19.2-4.3,26.1-7.8,6.8-3.5,11.3-6.7,13.2-9.8,1.8-3.1,3-7.4,3-13.1v-6.5h-69.6v11.9c0,4.6-.9,7.7-2.8,9.3-1.8,1.6-5.5,2.4-11.1,2.4s-7.5-.6-9.1-1.8c-1.5-1.2-2.4-3.9-2.4-8.1v-20.6h94.9v-11.6c0-8.9-2.8-15.9-8.2-20.8-5.4-4.9-14.8-8.9-28.1-11.9ZM1110.6,129.5h-20.8v-6.6c0-5.2.7-8.4,1.9-9.6,1.2-1.2,4.3-1.8,9.4-1.8s6.5.7,7.8,2.1c1.3,1.4,1.7,4.5,1.7,9.2v6.6Z" style="fill: url(#Gradiente_sem_nome_165);"/>
    <path d="M1495.9,100.7c-13.3-3-30.2-4.4-50.7-4.4s-31.5,1.2-44.4,3.7c-12.9,2.4-22.4,6-28,10.6-5.6,4.6-8.6,10.9-8.6,18.8v26.6c0,6.8,1.4,11.9,3.9,15.5,2.5,3.5,7.2,6.8,13.8,9.8,6.5,3,15.8,5.3,27.5,7,11.8,1.7,25.4,2.5,40.8,2.5s29.2-.8,39.6-2.6c10.5-1.7,19.2-4.3,26.1-7.7,6.8-3.4,11-6.7,12.9-9.7,1.8-3,2.7-7.4,2.7-13v-6.9h-69v12.2c0,4.5-.9,7.6-2.8,9.2-1.8,1.6-5.5,2.4-11.1,2.4s-7.8-.6-9.4-1.8c-1.5-1.2-2.7-3.8-2.7-8v-20.9h94.9v-10.9c0-8.8-2.5-15.7-7.9-20.6-5.4-4.9-14.5-8.8-27.8-11.7ZM1458.4,130.4h-21.7v-6.8c0-5.1.8-8.2,2.2-9.4s4.5-1.8,9.5-1.8,6.7.7,8,2.1c1.3,1.4,1.9,4.4,1.9,9.1v6.8Z" style="fill: url(#Gradiente_sem_nome_166);"/>
    <path d="M1266.4,172.3c1.2,1.1,3.7,1.7,8.4,1.7s7.3,0,8.5-1.4c.8-1.2,1.3-2.8,1.3-4.9,0-4.4-1.2-7.2-3.7-8.3-2.6-1.1-15.9-4.4-40-9.9-17.5-4.1-29.1-7.8-34.7-11.2,0,0,0,0-.1,0,0,0,0,0,0,0-.8-.5-1.4-.9-2-1.4,0,0-.2-.1-.2-.2-1-.8-1.9-1.7-2.6-2.7,0,0,0,0,0,0h0c-3.9-5.1-4.1-11.4-3-17,1.4-7.4,7.8-11,7.8-11,0,0,0,0,0,0,.6-.4,1.4-.8,2.3-1.2,4.8-2.5,11.7-4.4,20.6-5.9,8.8-1.5,18.8-2.4,29.9-2.7,2.5-.1,4.6-.2,6.2-.1,1.2,0,2.4,0,3.6,0,14.9,0,27.7.8,38.1,2.3,10.5,1.6,18.6,3.6,24.2,6.2,3.8,1.8,6.3,3.1,8.2,4.6,1.3,1.1,2.6,2.6,3,3.5,1.2,2.2,1.9,5.3,1.9,9.9v5.4h-59.9v-6s.2-5.6-1.6-7-2.7-1.3-5.2-1.6c-1.2-.1-2.6-.2-4.3-.2-3.8,0-6.7.5-8.6,1.6-1.5.8-2.4,1.8-2.7,3.4,0,.3,0,.6-.1.9-.3,4.4,1.3,7,3.8,8.1,2.6,1.1,16,4.4,40,9.9,13.6,3.1,23.6,6.1,30,8.8,1.7.7,3.1,1.4,4.3,2,6.1,3.5,9.2,8.6,9.2,15.3s-2,12.3-6.5,16.3c-1.1.9-3.4,2.5-5.9,3.4-4.7,2.1-11,3.6-19,4.9-8.8,1.5-18.8,2.4-29.9,2.7-2.5.1-4.6.2-6.2.1-1.2,0-2.4,0-3.6,0-14.9,0-27.7-.8-38.1-2.4-4.1-.6-7.8-1.3-11.1-2.1,0,0,0,0,0,0,0,0-17-3.5-22-11.2-4.9-7.7-4-18.3-4-18.3h61.5v11s.3,3.1,2.2,4.8Z" style="fill: url(#Gradiente_sem_nome_167);"/>
  </g>
  <metadata>
    <sfw xmlns="http://ns.adobe.com/SaveForWeb/1.0/">
      <slices/>
      <sliceSourceBounds x="1986.29" y="-2147.53" width="3111.81" height="885.17" bottomLeftOrigin="true"/>
      <optimizationSettings>
        <targetSettings fileFormat="PNG24Format" targetSettingsID="0">
          <PNG24Format filtered="false" interlaced="false" matteColor="#FFFFFF" noMatteColor="false" transparency="true"/>
        </targetSettings>
      </optimizationSettings>
    </sfw>
  </metadata>
</svg>