<?xml version="1.0" encoding="UTF-8"?>
<svg id="Camada_1" xmlns="http://www.w3.org/2000/svg" width="100" height="100" version="1.1" viewBox="0 0 100 100">
  <!-- Generator: Adobe Illustrator 30.4.0, SVG Export Plug-In . SVG Version: 2.1.4 Build 226)  -->
  <path d="M99.8,50c0,1.2,0,2.4-.1,3.5-.3,4.9-1.4,9.5-3,13.9-7.1,18.9-25.3,32.3-46.6,32.3S10.4,86.3,3.4,67.5c-1.6-4.4-2.7-9.1-3-13.9,0-1.2-.1-2.3-.1-3.5,0-3,.3-6,.8-8.8C5.2,17.9,25.5.2,50,.2s44.8,17.7,49,40.9c.5,2.9.8,5.8.8,8.8Z" style="fill: red;"/>
  <path d="M96.6,67.5c-7.1,18.9-25.3,32.3-46.6,32.3S10.4,86.3,3.4,67.5h93.3Z" style="fill: #474747;"/>
  <g>
    <g>
      <polygon points="66.1 25.4 65.4 30.5 84.1 30.5 84 30.8 84.1 30.8 83 38.9 72.3 38.9 73.1 32.4 65.1 32.4 63.4 44.2 90.3 44.2 93 25.4 66.1 25.4" style="fill: #fff;"/>
      <polygon points="63.5 25.4 36.6 25.4 35.9 30.5 54.6 30.5 54.6 30.8 54.6 30.8 54.4 32.1 54.4 32.1 54.4 32.4 35.5 32.4 33.9 44.2 42 44.2 42.9 37.5 50.8 37.5 52.7 44.2 60.8 44.2 58.9 37.5 61.7 37.5 63.5 25.4" style="fill: #fff;"/>
      <polygon points="7.1 25.4 6.3 30.5 25.2 30.5 24.9 32.4 6 32.4 4.4 44.2 12.4 44.2 13.4 37.5 32.2 37.5 33.9 25.4 7.1 25.4" style="fill: #fff;"/>
    </g>
    <g>
      <polygon points="92.7 46.4 84.6 46.4 80.8 53.1 75.7 53.1 73.7 46.4 65.7 46.4 68.4 55.8 63 65.2 71.1 65.2 74.9 58.5 80.1 58.5 82 65.2 90 65.2 87.3 55.8 92.7 46.4" style="fill: #fff;"/>
      <polygon points="7.3 46.4 4.6 65.2 12.5 65.2 14.5 50.9 16.3 51.4 14.4 65.2 21.9 65.2 23.9 50.9 25.6 51.4 23.8 65.2 31.5 65.2 34.2 46.4 7.3 46.4" style="fill: #fff;"/>
      <polygon points="36.9 46.4 36.1 51.5 55 51.5 54.9 51.8 55 51.8 54.3 55.8 43.6 55.8 44 53.4 35.9 53.4 34.2 65.2 42.3 65.2 42.9 61.2 53.6 61.2 53.1 65.2 61.1 65.2 63.8 46.4 36.9 46.4" style="fill: #fff;"/>
    </g>
  </g>
  <g style="isolation: isolate;">
    <g style="isolation: isolate;">
      <path d="M23.6,70.3c.2,0,.3,0,.3.3v1.5c0,.2-.1.3-.3.3h-4.6v7.9c0,.2,0,.3-.3.3h-1.6c-.2,0-.3,0-.3-.3v-7.9h-4.6c-.2,0-.3,0-.3-.3v-1.5c0-.2.1-.3.3-.3h11.4Z" style="fill: #fff;"/>
      <path d="M28.7,70.3c.2,0,.3,0,.3.3v5.9c0,1.5.4,2,2,2h4c1.5,0,2-.5,2-2v-5.9c0-.2.1-.3.3-.3h1.6c.2,0,.3,0,.3.3v6.1c0,2.8-1.1,3.8-4.1,3.8h-4.2c-3,0-4.1-1-4.1-3.8v-6.1c0-.2,0-.3.3-.3h1.6-.1Z" style="fill: #fff;"/>
      <path d="M45.2,70.3c1,0,1.3.2,1.7.8l5.4,7.2c0,0,0,0,.2,0h.1c0,0,.1,0,.1-.1v-7.6c0-.2,0-.3.3-.3h1.5c.2,0,.3,0,.3.3v8.4c0,1.2-.4,1.5-1.3,1.5h-1.3c-1,0-1.3-.2-1.7-.8l-5.4-7.2c0,0,0,0-.2,0h-.1c0,0-.1,0-.1.1v7.7c0,.2-.1.3-.3.3h-1.5c-.2,0-.3,0-.3-.3v-8.4c0-1.2.3-1.5,1.3-1.5h1.4Z" style="fill: #fff;"/>
      <path d="M68.8,70.3c.2,0,.3,0,.3.3v1.4c0,.2-.1.3-.3.3h-6.4c-1.5,0-1.9.4-1.9,2h0c0,0,8.2,0,8.2,0,.2,0,.3,0,.3.3v1.3c0,.2-.1.3-.3.3h-8.2v.2c0,1.5.4,2,1.9,2h6.4c.2,0,.3.1.3.3v1.4c0,.2-.1.3-.3.3h-6.4c-3,0-4.1-1-4.1-3.8v-2.5c0-2.8,1.1-3.8,4.1-3.8h6.4v-.2Z" style="fill: #fff;"/>
      <path d="M80.6,70.3c2.2,0,3.1,1,3.1,3v.8c0,1.7-.7,2.7-2.1,3l2.4,3c.1.1,0,.3-.2.3h-2c-.2,0-.3,0-.4-.2l-2.3-3h-4.7v2.9c0,.2,0,.3-.3.3h-1.6c-.2,0-.3,0-.3-.3v-9.3c0-.3.1-.4.4-.4h7.9ZM80.1,75.5c1,0,1.4-.3,1.4-1.3v-.6c0-.9-.3-1.3-1.4-1.3h-5.4c-.1,0-.2,0-.2.1v2.9h5.6Z" style="fill: #fff;"/>
    </g>
  </g>
  <metadata>
    <sfw xmlns="http://ns.adobe.com/SaveForWeb/1.0/">
      <slices/>
      <sliceSourceBounds x="0.21" y="-99.79" width="99.59" height="99.59" bottomLeftOrigin="true"/>
    </sfw>
  </metadata>
</svg>