<?xml version="1.0" encoding="UTF-8"?>
<svg id="Camada_1" xmlns="http://www.w3.org/2000/svg" version="1.1" viewBox="0 0 349.6 47.7">
  <!-- Generator: Adobe Illustrator 30.3.0, SVG Export Plug-In . SVG Version: 2.1.3 Build 182)  -->
  <defs>
    <style>
      .st0 {
        isolation: isolate;
      }

      .st1 {
        fill: #c10d19;
      }

      .st2 {
        fill: #848484;
      }

      .st3 {
        fill: #fff;
      }
    </style>
  </defs>
  <g>
    <polygon class="st3" points="224.3 1.3 214.1 1.3 209.2 9.8 202.8 9.8 200.3 1.3 190.1 1.3 193.6 13.2 186.8 25.1 197 25.1 201.8 16.6 208.3 16.6 210.7 25.1 220.9 25.1 217.5 13.2 224.3 1.3"/>
    <polygon class="st3" points="79.1 1.3 78.2 7.8 101.9 7.8 101.8 8.1 101.9 8.1 100.5 18.3 86.9 18.3 88 10.2 77.8 10.2 75.7 25.1 109.7 25.1 113.1 1.3 79.1 1.3"/>
    <polygon class="st3" points="75.8 1.3 41.8 1.3 40.9 7.8 64.6 7.8 64.6 8.1 64.6 8.1 64.3 9.8 64.3 9.8 64.3 10.2 40.5 10.2 38.4 25.1 48.6 25.1 49.8 16.6 59.8 16.6 62.2 25.1 72.4 25.1 70 16.6 73.6 16.6 75.8 1.3"/>
    <polygon class="st3" points="4.5 1.3 3.5 7.8 27.4 7.8 27 10.2 3.2 10.2 1.1 25.1 11.3 25.1 12.5 16.6 36.3 16.6 38.4 1.3 4.5 1.3"/>
    <polygon class="st3" points="116.4 1.3 113 25.1 122.9 25.1 125.4 7 127.7 7.7 125.3 25.1 134.8 25.1 137.3 7 139.5 7.7 137.2 25.1 147 25.1 150.4 1.3 116.4 1.3"/>
    <polygon class="st3" points="153.7 1.3 152.8 7.8 176.6 7.8 176.5 8.1 176.6 8.1 175.8 13.2 162.2 13.2 162.7 10.2 152.5 10.2 150.4 25.1 160.6 25.1 161.3 20 174.9 20 174.2 25.1 184.4 25.1 187.7 1.3 153.7 1.3"/>
  </g>
  <path class="st1" d="M229.2,1.3l-6.8,11.9,3.4,11.9h121.9V1.3h-118.5Z"/>
  <g class="st0">
    <g class="st0">
      <path class="st3" d="M250.1,6.3c.3,0,.5.1.5.5v2.1c0,.3-.2.5-.5.5h-6.6v11.3c0,.3-.1.5-.4.5h-2.3c-.3,0-.5-.1-.5-.5v-11.3h-6.6c-.3,0-.5-.1-.5-.5v-2.1c0-.3.2-.5.5-.5h16.4Z"/>
      <path class="st3" d="M257.5,6.3c.3,0,.5.1.5.5v8.4c0,2.2.6,2.9,2.8,2.9h5.8c2.2,0,2.8-.7,2.8-2.9V6.8c0-.3.2-.5.5-.5h2.3c.3,0,.5.1.5.5v8.7c0,4-1.6,5.5-5.9,5.5h-6c-4.3,0-5.9-1.5-5.9-5.5V6.8c0-.3.1-.5.5-.5h2.3Z"/>
      <path class="st3" d="M281.2,6.3c1.5,0,1.8.3,2.4,1.2l7.7,10.3c0,.1.1.1.3.1h.2c.1,0,.2,0,.2-.2V6.8c0-.3.1-.5.5-.5h2.2c.3,0,.5.1.5.5v12.1c0,1.7-.6,2.2-1.9,2.2h-1.9c-1.5,0-1.8-.3-2.4-1.2l-7.8-10.3c0-.1-.1-.1-.3-.1h-.2c-.1,0-.2,0-.2.2v11c0,.3-.2.5-.5.5h-2.2c-.3,0-.5-.1-.5-.5v-12.1c0-1.7.5-2.2,1.9-2.2h1.9Z"/>
      <path class="st3" d="M315,6.3c.3,0,.5.1.5.5v2c0,.3-.2.5-.5.5h-9.2c-2.2,0-2.7.6-2.7,2.8h0c0,.1,11.8.1,11.8.1.3,0,.5.1.5.5v1.9c0,.3-.2.5-.5.5h-11.8v.3c0,2.2.6,2.8,2.7,2.8h9.2c.3,0,.5.2.5.5v2c0,.3-.2.5-.5.5h-9.2c-4.3,0-5.9-1.5-5.9-5.5v-3.6c0-4,1.6-5.5,5.9-5.5h9.2Z"/>
      <path class="st3" d="M331.9,6.3c3.1,0,4.5,1.4,4.5,4.3v1.2c0,2.4-1,3.9-3,4.3l3.5,4.3c.2.2,0,.5-.3.5h-2.8c-.3,0-.4,0-.6-.3l-3.3-4.3h-6.7v4.1c0,.3-.1.5-.5.5h-2.3c-.3,0-.5-.1-.5-.5V7c0-.4.2-.6.6-.6h11.3ZM331.3,13.7c1.4,0,2-.5,2-1.8v-.9c0-1.3-.5-1.8-2-1.8h-7.8c-.2,0-.3,0-.3.2v4.2h8Z"/>
    </g>
  </g>
  <g class="st0">
    <g class="st0">
      <path class="st2" d="M165.3,40.9c-.2.3-.5.6-.9.9-.3.2-.7.4-1.1.6-.4.1-.8.2-1.2.2h-8.5l-1.1,3.8h-5.3l4.2-14.3h13.8c.4,0,.8,0,1.1.2.3.1.6.3.8.6.2.2.3.5.4.8,0,.3,0,.6,0,1l-1.5,5.2c0,.3-.3.7-.5,1ZM154.6,39.1h6.2c.2,0,.3,0,.4-.1.1,0,.2-.2.3-.4l.7-2.4c0-.1,0-.3,0-.4,0,0-.2-.1-.4-.1h-6.2l-1,3.4Z"/>
      <path class="st2" d="M183.2,35.6h-9.2l-.6,1.9h8.2l-1,3.5h-8.2l-.6,1.9h9.2l-1,3.5h-14.4l4.2-14.3h14.4l-1,3.5Z"/>
      <path class="st2" d="M200.9,38.5c-.1.5-.4.9-.7,1.2-.3.4-.7.6-1.3.8.5.2.7.4.8.8,0,.4,0,.8,0,1.3l-1.1,3.7h-4.7l1-3.3c0-.2,0-.4-.1-.6-.1-.2-.3-.3-.6-.3h-5.9l-1.2,4.2h-5.2l4.2-14.3h13.2c1.1,0,1.9.3,2.4.8.5.5.6,1.3.3,2.2l-1,3.5ZM190.2,35.6l-.9,3.1h5.9c.3,0,.5,0,.7-.3.2-.2.4-.4.5-.6l.5-1.7c0-.1,0-.3,0-.4,0,0-.2-.1-.4-.1h-6.3Z"/>
      <path class="st2" d="M217.9,35.6h-9.1l-.8,2.8h8.1l-1,3.5h-8.1l-1.3,4.5h-5.3l4.2-14.3h14.4l-1,3.5Z"/>
      <path class="st2" d="M233.4,45.5c-.8.6-1.8.9-3.1.9h-10.1c-1.2,0-2.1-.3-2.5-.9-.4-.6-.5-1.4-.2-2.4l2.3-7.6c.3-1,.8-1.8,1.6-2.4.8-.6,1.8-.9,3-.9h10.1c1.2,0,2.1.3,2.5.9.4.6.5,1.4.2,2.4l-2.3,7.6c-.3,1-.8,1.8-1.6,2.4ZM224.6,36.1l-1.8,6.3c0,.1,0,.3,0,.4,0,0,.2.1.4.1h6.4c.1,0,.3,0,.4-.1.1,0,.2-.2.3-.4l1.8-6.3c0-.1,0-.3,0-.4,0,0-.2-.1-.3-.1h-6.4c-.2,0-.3,0-.4.1-.1,0-.2.2-.3.4Z"/>
      <path class="st2" d="M254.9,38.5c-.1.5-.4.9-.7,1.2-.3.4-.7.6-1.3.8.5.2.7.4.8.8,0,.4,0,.8,0,1.3l-1.1,3.7h-4.7l1-3.3c0-.2,0-.4-.1-.6-.1-.2-.3-.3-.6-.3h-5.9l-1.2,4.2h-5.2l4.2-14.3h13.2c1.1,0,1.9.3,2.4.8.5.5.6,1.3.3,2.2l-1,3.5ZM244.2,35.6l-.9,3.1h5.9c.3,0,.5,0,.7-.3.2-.2.4-.4.5-.6l.5-1.7c0-.1,0-.3,0-.4,0,0-.2-.1-.4-.1h-6.3Z"/>
      <path class="st2" d="M273.8,46.4h-4.8l2.2-7.4-4.8,7.4h-4.4l-.6-7.4-2.2,7.4h-4.8l4.2-14.3h6.8l.5,8.7,5.6-8.7h6.6l-4.2,14.3Z"/>
      <path class="st2" d="M292.4,46.4h-5v-2.3c.1,0-5.6,0-5.6,0l-1.2,2.3h-5l7.8-14.3h9.7l-.6,14.3ZM283.6,40.7h4.2l.3-5.1h-1.9l-2.7,5.1Z"/>
      <path class="st2" d="M310.7,46.4h-7.2l-2-9.7-2.9,9.7h-5l4.2-14.3h7.2l2,9.7,2.9-9.7h5l-4.2,14.3Z"/>
      <path class="st2" d="M328.1,46.4h-12.4c-.4,0-.8,0-1.2-.2-.3-.1-.6-.3-.8-.6-.2-.2-.3-.5-.4-.8,0-.3,0-.7,0-1l2.7-9c.1-.4.3-.7.6-1,.3-.3.6-.6.9-.8.3-.2.7-.4,1.1-.5.4-.1.9-.2,1.3-.2h12.4l-1.6,5.6h-5.1l.6-2.1h-5c-.1,0-.2,0-.2.2l-2,7c0,.1,0,.2.1.2h10.1l-1,3.5Z"/>
      <path class="st2" d="M347.5,35.6h-9.2l-.6,1.9h8.2l-1,3.5h-8.2l-.6,1.9h9.2l-1,3.5h-14.4l4.2-14.3h14.4l-1,3.5Z"/>
    </g>
  </g>
</svg>
